<svg xmlns="http://www.w3.org/2000/svg" viewBox="0 0 586.27 95.95"><defs><style>.cls-1{isolation:isolate;}.cls-2{fill:#afafaf;}.cls-3{fill:#ffb45a;}.cls-4{fill:#ffe3c2;}</style></defs><g id="圖層_2" data-name="圖層 2"><g id="圖層_1-2" data-name="圖層 1"><g id="logo橫"><g id="组_28" data-name="组 28"><g id="Corner_Three_Lane_Art_Space" data-name="Corner Three Lane Art Space" class="cls-1"><g class="cls-1"><path class="cls-2" d="M136.25,74.11a6.44,6.44,0,0,1,2.06,4.08h-2.37a4.53,4.53,0,0,0-4.89-3.76,5.23,5.23,0,0,0-4.2,1.87q-1.6,1.86-1.6,5.71a8.43,8.43,0,0,0,1.44,5.11,5,5,0,0,0,4.31,2A4.54,4.54,0,0,0,135,87a8,8,0,0,0,1.09-2.86h2.37a8.12,8.12,0,0,1-2.08,4.75,7.31,7.31,0,0,1-5.69,2.31,7.48,7.48,0,0,1-5.19-1.9c-1.84-1.67-2.76-4.24-2.76-7.73a10,10,0,0,1,2.07-6.51A7.55,7.55,0,0,1,131,72.32,7.24,7.24,0,0,1,136.25,74.11Z"/><path class="cls-2" d="M153.3,79a6.61,6.61,0,0,1,1.73,5,8.51,8.51,0,0,1-1.53,5.22,5.5,5.5,0,0,1-4.74,2.06,5.32,5.32,0,0,1-4.25-1.82,7.25,7.25,0,0,1-1.58-4.9,7.86,7.86,0,0,1,1.66-5.24,5.57,5.57,0,0,1,4.46-1.95A5.88,5.88,0,0,1,153.3,79Zm-1.37,8.69a8.24,8.24,0,0,0,.8-3.68,6.51,6.51,0,0,0-.58-3,3.25,3.25,0,0,0-3.16-1.8,3.1,3.1,0,0,0-2.89,1.53,7.14,7.14,0,0,0-.91,3.71,6.18,6.18,0,0,0,.91,3.47A3.16,3.16,0,0,0,149,89.31,3,3,0,0,0,151.93,87.66Z"/><path class="cls-2" d="M160.29,77.67h2.09v2.25a5,5,0,0,1,1.25-1.6,3.28,3.28,0,0,1,2.31-.95l.21,0,.5,0v2.32a2.47,2.47,0,0,0-.36,0l-.36,0a3.13,3.13,0,0,0-2.55,1.07,3.69,3.69,0,0,0-.89,2.46v7.52h-2.2Z"/><path class="cls-2" d="M171.05,77.67h2.09v1.85a5.94,5.94,0,0,1,2-1.65,5.28,5.28,0,0,1,2.3-.5c1.86,0,3.11.65,3.76,1.94a6.89,6.89,0,0,1,.54,3v8.39h-2.23V82.5a4.4,4.4,0,0,0-.36-1.93A2.15,2.15,0,0,0,177,79.35a4.16,4.16,0,0,0-1.28.16,3.58,3.58,0,0,0-2.31,2.41,9.06,9.06,0,0,0-.16,2v6.85h-2.2Z"/><path class="cls-2" d="M195.53,78a4.88,4.88,0,0,1,2,1.69,5.69,5.69,0,0,1,.87,2.3,15.13,15.13,0,0,1,.2,2.88h-9.51a5.7,5.7,0,0,0,.93,3.21,3.11,3.11,0,0,0,2.7,1.2,3.48,3.48,0,0,0,2.73-1.14,3.87,3.87,0,0,0,.8-1.53h2.16a4.39,4.39,0,0,1-.56,1.6,5.83,5.83,0,0,1-1.08,1.45A5.08,5.08,0,0,1,194.29,91a7.42,7.42,0,0,1-1.78.19,5.45,5.45,0,0,1-4.11-1.77,6.92,6.92,0,0,1-1.69-5,7.54,7.54,0,0,1,1.7-5.11,5.59,5.59,0,0,1,4.44-2A5.83,5.83,0,0,1,195.53,78Zm.79,5.13a5.79,5.79,0,0,0-.62-2.28,3.16,3.16,0,0,0-3-1.59,3.3,3.3,0,0,0-2.52,1.09,4.19,4.19,0,0,0-1.07,2.78Z"/><path class="cls-2" d="M203.92,77.67H206v2.25a4.93,4.93,0,0,1,1.26-1.6,3.24,3.24,0,0,1,2.3-.95l.21,0,.5,0v2.32a2.47,2.47,0,0,0-.36,0l-.36,0A3.13,3.13,0,0,0,207,80.76a3.74,3.74,0,0,0-.89,2.46v7.52h-2.2Z"/><path class="cls-2" d="M237,72.81v2.13h-6v15.8h-2.45V74.94h-6.05V72.81Z"/><path class="cls-2" d="M241.46,72.75h2.2v6.69a6.21,6.21,0,0,1,1.4-1.39,4.69,4.69,0,0,1,2.65-.7c1.9,0,3.18.66,3.86,2a6.71,6.71,0,0,1,.55,3v8.39h-2.26V82.5a4.52,4.52,0,0,0-.37-2.11,2.32,2.32,0,0,0-2.24-1.08,3.78,3.78,0,0,0-2.48.94c-.74.63-1.11,1.81-1.11,3.56v6.93h-2.2Z"/><path class="cls-2" d="M257.93,77.67H260v2.25a5,5,0,0,1,1.25-1.6,3.28,3.28,0,0,1,2.31-.95l.21,0,.5,0v2.32a2.47,2.47,0,0,0-.36,0l-.36,0A3.13,3.13,0,0,0,261,80.76a3.7,3.7,0,0,0-.9,2.46v7.52h-2.19Z"/><path class="cls-2" d="M276.77,78a4.92,4.92,0,0,1,2,1.69,5.84,5.84,0,0,1,.88,2.3,15.32,15.32,0,0,1,.19,2.88H270.3a5.63,5.63,0,0,0,.94,3.21,3.11,3.11,0,0,0,2.7,1.2,3.48,3.48,0,0,0,2.72-1.14,3.89,3.89,0,0,0,.81-1.53h2.16a4.63,4.63,0,0,1-.57,1.6A5.81,5.81,0,0,1,278,89.69,5.17,5.17,0,0,1,275.53,91a7.48,7.48,0,0,1-1.78.19,5.49,5.49,0,0,1-4.12-1.77,7,7,0,0,1-1.68-5,7.49,7.49,0,0,1,1.7-5.11,5.59,5.59,0,0,1,4.44-2A5.86,5.86,0,0,1,276.77,78Zm.78,5.13a5.64,5.64,0,0,0-.61-2.28,3.17,3.17,0,0,0-3-1.59,3.3,3.3,0,0,0-2.52,1.09,4.15,4.15,0,0,0-1.08,2.78Z"/><path class="cls-2" d="M293.17,78a4.88,4.88,0,0,1,2,1.69A5.69,5.69,0,0,1,296,82a15.13,15.13,0,0,1,.2,2.88h-9.51a5.7,5.7,0,0,0,.93,3.21,3.11,3.11,0,0,0,2.7,1.2,3.48,3.48,0,0,0,2.73-1.14,4,4,0,0,0,.8-1.53H296a4.39,4.39,0,0,1-.56,1.6,5.83,5.83,0,0,1-1.08,1.45A5.08,5.08,0,0,1,291.93,91a7.48,7.48,0,0,1-1.78.19A5.45,5.45,0,0,1,286,89.43a6.92,6.92,0,0,1-1.69-5,7.54,7.54,0,0,1,1.7-5.11,5.59,5.59,0,0,1,4.44-2A5.83,5.83,0,0,1,293.17,78Zm.79,5.13a5.79,5.79,0,0,0-.62-2.28,3.16,3.16,0,0,0-3-1.59,3.3,3.3,0,0,0-2.52,1.09,4.15,4.15,0,0,0-1.07,2.78Z"/><path class="cls-2" d="M311.24,72.81h2.43V88.6h9v2.14H311.24Z"/><path class="cls-2" d="M334.36,82.83a1.2,1.2,0,0,0,1-.64,1.85,1.85,0,0,0,.15-.84,1.81,1.81,0,0,0-.8-1.64,4.28,4.28,0,0,0-2.29-.5,2.89,2.89,0,0,0-2.43.93,3,3,0,0,0-.53,1.53h-2.05A3.76,3.76,0,0,1,329,78.3a6.34,6.34,0,0,1,3.49-1,7.08,7.08,0,0,1,3.75.88A3,3,0,0,1,337.65,81v7.53a1,1,0,0,0,.14.55.68.68,0,0,0,.59.21l.33,0,.39,0V90.8a5,5,0,0,1-.78.18,4.73,4.73,0,0,1-.73,0,1.82,1.82,0,0,1-1.65-.8,3.25,3.25,0,0,1-.38-1.21,5.6,5.6,0,0,1-1.92,1.52,6,6,0,0,1-2.78.65,4.14,4.14,0,0,1-3-1.1,3.67,3.67,0,0,1-1.15-2.77,3.55,3.55,0,0,1,1.13-2.81,5.36,5.36,0,0,1,3-1.23Zm-4.63,5.93a2.55,2.55,0,0,0,1.65.55,5.08,5.08,0,0,0,2.24-.53,3,3,0,0,0,1.83-2.92V84.1a3.55,3.55,0,0,1-1,.42,8.26,8.26,0,0,1-1.24.25l-1.33.17a5.16,5.16,0,0,0-1.8.5,1.94,1.94,0,0,0-1,1.83A1.8,1.8,0,0,0,329.73,88.76Z"/><path class="cls-2" d="M343.75,77.67h2.09v1.85a5.94,5.94,0,0,1,2-1.65,5.28,5.28,0,0,1,2.3-.5c1.86,0,3.11.65,3.76,1.94a6.89,6.89,0,0,1,.54,3v8.39h-2.23V82.5a4.4,4.4,0,0,0-.36-1.93,2.15,2.15,0,0,0-2.12-1.22,4.16,4.16,0,0,0-1.28.16,3.58,3.58,0,0,0-2.31,2.41,9.06,9.06,0,0,0-.16,2v6.85h-2.2Z"/><path class="cls-2" d="M368.23,78a4.88,4.88,0,0,1,2,1.69,5.69,5.69,0,0,1,.87,2.3,15.13,15.13,0,0,1,.2,2.88h-9.51a5.7,5.7,0,0,0,.93,3.21,3.11,3.11,0,0,0,2.7,1.2,3.48,3.48,0,0,0,2.73-1.14,3.87,3.87,0,0,0,.8-1.53h2.16a4.39,4.39,0,0,1-.56,1.6,5.83,5.83,0,0,1-1.08,1.45A5.08,5.08,0,0,1,367,91a7.42,7.42,0,0,1-1.78.19,5.45,5.45,0,0,1-4.11-1.77,6.92,6.92,0,0,1-1.69-5,7.54,7.54,0,0,1,1.7-5.11,5.59,5.59,0,0,1,4.44-2A5.83,5.83,0,0,1,368.23,78Zm.79,5.13a5.79,5.79,0,0,0-.62-2.28,3.16,3.16,0,0,0-3-1.59,3.3,3.3,0,0,0-2.52,1.09,4.19,4.19,0,0,0-1.07,2.78Z"/><path class="cls-2" d="M390.16,72.81h2.75l6.51,17.93h-2.67l-1.87-5.37h-7l-2,5.37h-2.49Zm4,10.58-2.76-7.92-2.87,7.92Z"/><path class="cls-2" d="M403.87,77.67H406v2.25a4.93,4.93,0,0,1,1.26-1.6,3.28,3.28,0,0,1,2.31-.95l.2,0,.5,0v2.32a2.47,2.47,0,0,0-.36,0l-.36,0A3.16,3.16,0,0,0,407,80.76a3.74,3.74,0,0,0-.89,2.46v7.52h-2.2Z"/><path class="cls-2" d="M415.08,74h2.22v3.65h2.09v1.79H417.3V88a.93.93,0,0,0,.46.92,2,2,0,0,0,.86.13H419c.12,0,.26,0,.43-.05v1.75a5,5,0,0,1-.79.16,8,8,0,0,1-.88,0,2.36,2.36,0,0,1-2.09-.79,3.46,3.46,0,0,1-.55-2V79.46h-1.77V77.67h1.77Z"/><path class="cls-2" d="M435.41,85a5.16,5.16,0,0,0,.69,2.48c.78,1.19,2.15,1.79,4.11,1.79a7,7,0,0,0,2.4-.4,2.74,2.74,0,0,0,2.09-2.71,2.36,2.36,0,0,0-.89-2.08A8.64,8.64,0,0,0,441,83l-2.35-.56a10.33,10.33,0,0,1-3.27-1.18,3.8,3.8,0,0,1-1.65-3.36,5.23,5.23,0,0,1,1.62-4A6.4,6.4,0,0,1,440,72.36a7.8,7.8,0,0,1,4.66,1.36,5,5,0,0,1,1.92,4.35h-2.28a4.66,4.66,0,0,0-.75-2.21,4.23,4.23,0,0,0-3.61-1.4,4.09,4.09,0,0,0-3,.9,2.88,2.88,0,0,0-.9,2.1,2.07,2.07,0,0,0,1.07,1.93,15.31,15.31,0,0,0,3.16,1l2.43.58a7.37,7.37,0,0,1,2.72,1.13,4.3,4.3,0,0,1,1.66,3.65A4.58,4.58,0,0,1,445,90,9.2,9.2,0,0,1,440,91.27a7.21,7.21,0,0,1-5.1-1.71A5.85,5.85,0,0,1,433.13,85Z"/><path class="cls-2" d="M452.52,77.73h2.15v1.73a5.49,5.49,0,0,1,1.44-1.38,4.67,4.67,0,0,1,2.62-.73,5,5,0,0,1,3.79,1.7,7,7,0,0,1,1.55,4.87c0,2.84-.75,4.88-2.24,6.1a5.1,5.1,0,0,1-3.31,1.16,4.52,4.52,0,0,1-2.49-.65,5.66,5.66,0,0,1-1.31-1.25V96h-2.2ZM460.79,88a6.1,6.1,0,0,0,1-3.85,7.19,7.19,0,0,0-.45-2.68,3.32,3.32,0,0,0-6.27.12,8.81,8.81,0,0,0-.46,3.1,6.43,6.43,0,0,0,.46,2.58,3.11,3.11,0,0,0,3.13,2A3.15,3.15,0,0,0,460.79,88Z"/><path class="cls-2" d="M476.12,82.83a1.2,1.2,0,0,0,1-.64,1.85,1.85,0,0,0,.15-.84,1.81,1.81,0,0,0-.8-1.64,4.28,4.28,0,0,0-2.29-.5,2.89,2.89,0,0,0-2.43.93,3,3,0,0,0-.53,1.53h-2.05a3.79,3.79,0,0,1,1.57-3.37,6.34,6.34,0,0,1,3.49-1,7.08,7.08,0,0,1,3.75.88A3,3,0,0,1,479.41,81v7.53a1,1,0,0,0,.14.55.68.68,0,0,0,.59.21l.33,0,.39,0V90.8a5,5,0,0,1-.78.18,4.73,4.73,0,0,1-.73,0,1.82,1.82,0,0,1-1.65-.8,3.25,3.25,0,0,1-.38-1.21,5.6,5.6,0,0,1-1.92,1.52,6,6,0,0,1-2.78.65,4.14,4.14,0,0,1-3-1.1,3.67,3.67,0,0,1-1.15-2.77,3.55,3.55,0,0,1,1.13-2.81,5.36,5.36,0,0,1,3-1.23Zm-4.63,5.93a2.55,2.55,0,0,0,1.65.55,5.08,5.08,0,0,0,2.24-.53,3,3,0,0,0,1.83-2.92V84.1a3.55,3.55,0,0,1-1,.42,8.26,8.26,0,0,1-1.24.25l-1.33.17a5.16,5.16,0,0,0-1.8.5,1.94,1.94,0,0,0-1,1.83A1.8,1.8,0,0,0,471.49,88.76Z"/><path class="cls-2" d="M494.15,78.36a5.18,5.18,0,0,1,1.67,3.7h-2.14a4,4,0,0,0-.89-2,2.84,2.84,0,0,0-2.24-.8,3.09,3.09,0,0,0-3,2,8.16,8.16,0,0,0-.58,3.28,6.14,6.14,0,0,0,.83,3.31,3.21,3.21,0,0,0,4.77.5,4.45,4.45,0,0,0,1.11-2.28h2.14A5.75,5.75,0,0,1,494,89.92a5.69,5.69,0,0,1-3.74,1.2,5,5,0,0,1-4.09-1.88,7.12,7.12,0,0,1-1.53-4.68,7.88,7.88,0,0,1,1.67-5.35,5.41,5.41,0,0,1,4.26-1.92A5.73,5.73,0,0,1,494.15,78.36Z"/><path class="cls-2" d="M508.59,78a5,5,0,0,1,2,1.69,6,6,0,0,1,.87,2.3,15.32,15.32,0,0,1,.19,2.88h-9.51a5.71,5.71,0,0,0,.94,3.21,3.11,3.11,0,0,0,2.7,1.2,3.45,3.45,0,0,0,2.72-1.14,3.89,3.89,0,0,0,.81-1.53h2.16a4.63,4.63,0,0,1-.57,1.6,5.81,5.81,0,0,1-1.07,1.45A5.12,5.12,0,0,1,507.35,91a7.48,7.48,0,0,1-1.78.19,5.49,5.49,0,0,1-4.12-1.77,7,7,0,0,1-1.68-5,7.49,7.49,0,0,1,1.7-5.11,5.59,5.59,0,0,1,4.44-2A5.86,5.86,0,0,1,508.59,78Zm.79,5.13a5.79,5.79,0,0,0-.62-2.28,3.17,3.17,0,0,0-3-1.59,3.3,3.3,0,0,0-2.52,1.09,4.15,4.15,0,0,0-1.08,2.78Z"/></g></g><g id="轉角三巷藝術空間_" data-name="轉角三巷藝術空間 " class="cls-1"><g class="cls-1"><path class="cls-2" d="M132.35,18.68V14.14H124.9V10.9h7.45V6h3.56V10.9h7.24v3.24h-7.24v4.54h6.54V39.36h-6.54V43.9h7.56v3.29h-7.56v8.05h-3.56V47.19h-7.78V43.9h7.78V39.36H125.6V18.68Zm.32,8.86V21.6h-4v5.94Zm0,2.91h-4v6h4Zm2.87-2.91h4V21.6h-4Zm4,2.91h-4v6h4Zm17-21.71v-3h3.62v3h11.66v3.14H160.16v3h10.26V30.45h-1.73a67.65,67.65,0,0,1,4.54,6.64l-2.43,1.73c-.49-.86-1-1.78-1.57-2.64-.86.1-1.67.16-2.54.21v4.32H173V44h-6.32V51.3c0,2.7-1.29,4.05-3.83,4.05h-5.35l-.75-3.46c1.67.11,3.29.22,4.8.22,1,0,1.52-.6,1.52-1.68V44H145.2v-3.3h17.88V36.66c-4.86.33-10.7.54-17.55.76l-.44-3q6.24-.15,11.51-.32V30.45H146.28V14.9h10.26v-3H145V8.74Zm-.65,40.61L154,52.27a31.16,31.16,0,0,0-7.29-5.19l1.79-2.53A35,35,0,0,1,155.89,49.35Zm.87-28V17.49h-7.18v3.84Zm0,2.64h-7.18v3.89h7.18ZM160,21.33h7.13V17.49H160ZM167.13,24H160v3.89h7.13Zm-1.84,6.48h-5.18v3.46c2.7-.11,5.18-.27,7.39-.38C166.8,32.45,166.05,31.42,165.29,30.45Z"/><path class="cls-2" d="M187.59,55.62l-3-2.7c3.89-4.86,5.83-11.07,5.94-18.58V21.49c-1.46,1.08-2.91,2.05-4.43,3l-2.48-3a50.93,50.93,0,0,0,16.85-16l3.89.87c-.87,1.35-1.79,2.64-2.65,3.89h20.14v2.86a61.06,61.06,0,0,1-7.29,6.15h13.93V50.32c0,3.19-1.78,4.81-5.29,4.81h-6.91l-1-3.62c2.43.11,4.7.22,6.75.22,1.73,0,2.64-.92,2.64-2.76V43H210.92v11.4h-3.83V43H193.42A30.4,30.4,0,0,1,187.59,55.62Zm21.33-36.35a68.67,68.67,0,0,0,7.62-5.61H199a61.7,61.7,0,0,1-5.73,5.61ZM194.4,34.07c-.06,1.94-.17,3.78-.38,5.51h13.07V33.15H194.4Zm0-11.29V29.7h12.69V22.78Zm30.34,0H210.92V29.7h13.82Zm0,10.37H210.92v6.43h13.82Z"/><path class="cls-2" d="M291.81,48.65v3.89H243.1V48.65ZM287.92,10v3.78H247.1V10Zm-3.67,18.68v3.78H250.72V28.67Z"/><path class="cls-2" d="M316.81,12V6.1h3.73V12h12.64V6.15h3.72V12h10.53v3.45H336.9v6.7h13.18V25.7H337.17c3,5,7.89,9,14.48,11.77L350,41a40.33,40.33,0,0,1-11.28-7.94V43.79h-21.5V48.7c0,1.41.81,2.16,2.32,2.16h19a3.79,3.79,0,0,0,3.29-1.51c.49-.81.87-2.81,1.19-5.94l3.57,1.14a28.15,28.15,0,0,1-1.36,6.75c-.91,2.05-2.8,3.07-5.61,3.18H318.11c-3.13,0-4.64-1.51-4.64-4.43V34.83a48.83,48.83,0,0,1-9.62,6.64l-2.05-3.3q10.77-5.51,14.47-12.47H303.64V22.19h13.17v-6.7H306.23V12Zm20,19a29.16,29.16,0,0,1-3.57-5.35H320.22A31.4,31.4,0,0,1,317,31.05ZM335,40.28V34.5H317.19v5.78Zm-1.83-18.09v-6.7H320.54v6.7Z"/><path class="cls-2" d="M410.13,44.6v2.81H397.81a73.83,73.83,0,0,1,9.78,5.83l-2.27,2.32a39.69,39.69,0,0,0-3.94-2.86c-8.37.86-19.39,1.57-33,2.11l-.64-2.92a3.8,3.8,0,0,0,1.56-.38,57.54,57.54,0,0,0,6.43-4.1H362.28V44.6Zm-36.72-28V14.52h3.45v2.05h8.05v2.65h-8.05v2.43h9.94V24.3h-5.89a41.08,41.08,0,0,1,6,3.83l-1.73,1.78a40.63,40.63,0,0,0-6.91-4.64l1-1h-9.51l1.3,1.13a29.3,29.3,0,0,1-7.24,5.45l-1.56-2.05a29.13,29.13,0,0,0,6.53-4.53h-5.45V21.65h10V19.22h-8.1V16.57Zm1.83-7.93V5.77h3.67V8.64H393.6V5.83h3.67V8.64h12.1v3.13h-12.1v2.1H393.6v-2.1H378.91v2.1h-3.67v-2.1h-12V8.64Zm-1.73,20.41V26.19h3.24v2.86h6.43v2.27h-6.43v3l8.43-.32V36.5c-6.27.32-13.39.54-21.39.76l-.37-2.65c3.56,0,6.91-.11,10.09-.22V31.32H367V29.05ZM405,39.47V42H367.52V39.47ZM373.3,51.94c9.72-.37,17.93-.86,24.62-1.4-1.29-.76-2.59-1.51-3.89-2.21l1-.92H380.16A74.83,74.83,0,0,1,373.3,51.94Zm30.78-15.17a5.87,5.87,0,0,1-1.73-3.08,26.83,26.83,0,0,1-.54-5.88c0-2,.05-4.27.22-6.81h-4.86v.06a25.25,25.25,0,0,1-1.35,8.1,47.58,47.58,0,0,1,4.59,3.67L398.14,35a37,37,0,0,0-3.57-3.13,17.4,17.4,0,0,1-5.45,6l-2.48-2.21A15,15,0,0,0,391.93,30a47.56,47.56,0,0,0-4.81-2.76l1.78-2.05A31.93,31.93,0,0,1,393,27.27a25.7,25.7,0,0,0,.92-6.21V21H388V17.87h5.94V14.79h3.24v3.08h8.2c-.32,3.56-.48,6.91-.48,10a25.14,25.14,0,0,0,.32,4.54c.33,1.08.65,1.67,1.08,1.78.6-.11,1-.65,1.35-1.57a27.53,27.53,0,0,0,.71-4.1L411,29.7c-.48,3.34-1.13,5.61-2,6.75a3.51,3.51,0,0,1-2.49,1.4A3.68,3.68,0,0,1,404.08,36.77Z"/><path class="cls-2" d="M435.29,7.56A41.38,41.38,0,0,1,422,23.11l-1.13-3.73A36.87,36.87,0,0,0,431.94,6Zm.49,13.5a44.23,44.23,0,0,1-3.89,6.69V55.24h-3.78V32.34a52.61,52.61,0,0,1-6,5.4L421,34.07a39.23,39.23,0,0,0,11.45-14.53Zm1.13.7V18.25h6.8V6.1h3.57V18.25h6.86v3.51h-6.86V27c2.7,3.4,5.4,7.29,8.21,11.61l-2.16,3.24C451,37.42,449,33.8,447.28,31.1V55.24h-3.57V31.15a63.67,63.67,0,0,1-7.66,17.39L433.89,45c4.32-6.05,7.39-13.77,9.23-23.27Zm17.82-6.64L452,16.3a57.54,57.54,0,0,0-2.75-7.12L452,8.26A51.8,51.8,0,0,1,454.73,15.12Zm1,39.79-.81-3.61c1.73.16,3.35.27,4.86.27a1.69,1.69,0,0,0,1.89-1.89V27h-6.42V23.27h14.95V27h-4.75V50.59c0,2.87-1.46,4.32-4.37,4.32ZM469.42,9.5v3.62H456.13V9.5Z"/><path class="cls-2" d="M523.58,33.42v3.67H507v12.8h21.12v3.73H482.05V49.89h21V37.09H486.59V33.42ZM507.33,11.23H528V22.08h-3.94V14.85h-38V22h-3.94V11.23h21.17a42.83,42.83,0,0,0-2.27-5l4.21-.65A58.6,58.6,0,0,1,507.33,11.23Zm-6.11,10.2a53.26,53.26,0,0,1-15.71,9.51l-1.67-3.57a44.39,44.39,0,0,0,15-8.74Zm24.36,6.32-2.22,3.3A68.07,68.07,0,0,0,508,21.33l2.05-3.08A73.89,73.89,0,0,1,525.58,27.75Z"/><path class="cls-2" d="M561.7,25.81H546.53V55.29h-3.89V7.66H561.7Zm-3.88-14.69H546.53v4.05h11.29ZM546.53,22.3h11.29V18.19H546.53Zm27.81,7.4V50.54H554.52V29.7Zm-3.67,8.8V32.94H558.25V38.5Zm0,3.18H558.25V47.3h12.42Zm-3.78-15.87V7.61h19.38V51.08c0,2.7-1.4,4.1-4.1,4.1-1.84,0-3.67,0-5.45-.1l-1-3.73c1.84.11,3.51.22,5.08.22a1.53,1.53,0,0,0,1.67-1.73v-24Zm15.55-14.69H570.78v4.1h11.66ZM570.78,22.3h11.66V18.25H570.78Z"/></g></g></g><g id="组_1" data-name="组 1"><path id="矩形_1" data-name="矩形 1" class="cls-3" d="M18.18,0h51A20.31,20.31,0,0,1,89.53,20.31v3.57H18.18V0Z"/><rect id="矩形_2" data-name="矩形 2" class="cls-4" y="32.83" width="68.78" height="23.88"/><path id="矩形_3" data-name="矩形 3" class="cls-2" d="M89.54,89.54H20.31A20.31,20.31,0,0,1,0,69.23V65.66H89.54V89.54Z"/></g></g></g></g></svg>