<?xml version="1.0" encoding="utf-8"?>
<!-- Generator: Adobe Illustrator 24.1.3, SVG Export Plug-In . SVG Version: 6.00 Build 0)  -->
<svg version="1.1" id="圖層_1" xmlns="http://www.w3.org/2000/svg" xmlns:xlink="http://www.w3.org/1999/xlink" x="0px" y="0px"
	 viewBox="0 0 342 210.9" style="enable-background:new 0 0 342 210.9;" xml:space="preserve">
<style type="text/css">
	.st0{fill:#AFAFAF;}
	.st1{fill:#FFB45A;}
	.st2{fill:#FFE3C2;}
</style>
<g id="Corner_Three_Lane_Art_Space_">
	<g>
		<path class="st0" d="M26.2,193.4c0.9,0.8,1.5,2,1.7,3.3H26c-0.3-1.9-2-3.2-3.9-3c-1.3,0-2.5,0.5-3.4,1.5c-1,1.3-1.4,2.9-1.3,4.6
			c-0.1,1.5,0.3,2.9,1.2,4.1c0.8,1.1,2.1,1.7,3.5,1.6c1.3,0.1,2.5-0.6,3.2-1.6c0.4-0.7,0.7-1.5,0.9-2.3H28c-0.1,1.4-0.7,2.7-1.7,3.8
			c-1.2,1.2-2.8,1.9-4.6,1.8c-1.5,0-3-0.5-4.1-1.5c-1.5-1.3-2.2-3.4-2.2-6.2c-0.1-1.9,0.5-3.7,1.7-5.2c1.2-1.5,3-2.3,4.9-2.2
			C23.6,191.9,25.1,192.4,26.2,193.4z"/>
		<path class="st0" d="M39.9,197.3c1,1.1,1.5,2.5,1.4,4c0.1,1.5-0.4,2.9-1.2,4.2c-0.9,1.1-2.3,1.8-3.8,1.6c-1.3,0.1-2.6-0.5-3.4-1.5
			c-0.9-1.1-1.3-2.5-1.3-3.9c-0.1-1.5,0.4-3,1.3-4.2c0.9-1,2.2-1.6,3.6-1.6C37.7,195.9,39,196.4,39.9,197.3z M38.8,204.3
			c0.4-0.9,0.7-1.9,0.6-2.9c0-0.8-0.1-1.6-0.5-2.4c-0.5-1-1.5-1.5-2.5-1.4c-0.9-0.1-1.8,0.4-2.3,1.2c-0.5,0.9-0.8,2-0.7,3
			c0,1,0.2,1.9,0.7,2.8c0.5,0.8,1.4,1.2,2.3,1.1C37.4,205.7,38.4,205.2,38.8,204.3L38.8,204.3z"/>
		<path class="st0" d="M45.5,196.2h1.7v1.8c0.2-0.5,0.6-0.9,1-1.3c0.5-0.5,1.2-0.8,1.8-0.8h0.2h0.4v1.9h-0.3H50
			c-0.8,0-1.5,0.3-2,0.9c-0.5,0.6-0.7,1.3-0.7,2v6h-1.8V196.2z"/>
		<path class="st0" d="M54.1,196.2h1.7v1.5c0.4-0.6,1-1,1.6-1.3c0.6-0.3,1.2-0.4,1.9-0.4c1.2-0.1,2.4,0.5,3,1.6
			c0.3,0.8,0.5,1.6,0.4,2.4v6.7h-1.8v-6.6c0-0.5-0.1-1.1-0.3-1.5c-0.3-0.7-1-1.1-1.7-1c-0.3,0-0.7,0-1,0.1c-0.9,0.3-1.6,1-1.8,1.9
			c-0.1,0.5-0.1,1.1-0.1,1.6v5.5h-1.8V196.2z"/>
		<path class="st0" d="M73.7,196.5c0.6,0.3,1.2,0.8,1.6,1.4c0.4,0.6,0.6,1.2,0.7,1.9c0.1,0.8,0.2,1.5,0.2,2.3h-7.6
			c0,0.9,0.2,1.8,0.8,2.6c0.5,0.7,1.3,1.1,2.2,1c0.8,0,1.6-0.3,2.2-0.9c0.3-0.4,0.5-0.8,0.6-1.2H76c-0.1,0.5-0.2,0.9-0.4,1.3
			c-0.2,0.4-0.5,0.8-0.9,1.2c-0.6,0.5-1.2,0.9-2,1.1c-0.5,0.1-0.9,0.2-1.4,0.1c-1.2,0-2.4-0.5-3.3-1.4c-1-1.1-1.4-2.5-1.3-4
			c-0.1-1.5,0.4-2.9,1.3-4.1c0.9-1.1,2.2-1.6,3.6-1.6C72.3,196,73,196.2,73.7,196.5z M74.3,200.6c0-0.6-0.2-1.3-0.5-1.8
			c-0.5-0.8-1.4-1.3-2.4-1.3c-0.8,0-1.5,0.3-2,0.9c-0.6,0.6-0.9,1.4-0.9,2.2L74.3,200.6z"/>
		<path class="st0" d="M80.4,196.2H82v1.8c0.2-0.5,0.6-0.9,1-1.3c0.5-0.5,1.2-0.8,1.8-0.8h0.2h0.4v1.9h-0.3h-0.3
			c-0.8,0-1.5,0.3-2,0.9c-0.5,0.6-0.7,1.3-0.7,2v6h-1.8V196.2z"/>
		<path class="st0" d="M106.9,192.4v1.7H102v12.6h-2v-12.6h-4.8v-1.7L106.9,192.4z"/>
		<path class="st0" d="M110.4,192.3h1.8v5.4c0.3-0.4,0.7-0.8,1.1-1.1c0.6-0.4,1.4-0.6,2.1-0.6c1.3-0.1,2.5,0.5,3.1,1.6
			c0.3,0.8,0.5,1.6,0.4,2.4v6.7h-1.8v-6.6c0-0.6-0.1-1.2-0.3-1.7c-0.4-0.6-1.1-0.9-1.8-0.9c-0.7,0-1.4,0.3-2,0.8
			c-0.7,0.8-1,1.8-0.9,2.8v5.6h-1.8L110.4,192.3z"/>
		<path class="st0" d="M123.6,196.2h1.7v1.8c0.2-0.5,0.6-0.9,1-1.3c0.5-0.5,1.2-0.8,1.8-0.8h0.2h0.4v1.9h-0.3h-0.3
			c-0.8,0-1.5,0.3-2,0.9c-0.5,0.6-0.7,1.3-0.7,2v6h-1.8L123.6,196.2z"/>
		<path class="st0" d="M138.7,196.5c0.6,0.3,1.2,0.8,1.6,1.4c0.4,0.6,0.6,1.2,0.7,1.9c0.1,0.8,0.2,1.5,0.2,2.3h-7.6
			c0,0.9,0.2,1.8,0.7,2.6c0.5,0.7,1.3,1.1,2.2,1c0.8,0,1.6-0.3,2.2-0.9c0.3-0.4,0.5-0.8,0.6-1.2h1.7c-0.1,0.4-0.2,0.9-0.4,1.3
			c-0.2,0.4-0.5,0.8-0.9,1.2c-0.6,0.5-1.2,0.9-2,1.1c-0.5,0.1-0.9,0.2-1.4,0.1c-1.2,0-2.4-0.5-3.3-1.4c-1-1.1-1.4-2.5-1.4-4
			c-0.1-1.5,0.4-2.9,1.4-4.1c0.9-1,2.2-1.6,3.6-1.6C137.2,196,138,196.2,138.7,196.5z M139.3,200.6c0-0.6-0.2-1.3-0.5-1.8
			c-0.5-0.9-1.4-1.3-2.4-1.3c-0.8,0-1.5,0.3-2,0.9c-0.6,0.6-0.9,1.4-0.9,2.2L139.3,200.6z"/>
		<path class="st0" d="M151.8,196.5c0.6,0.3,1.2,0.8,1.6,1.4c0.4,0.6,0.6,1.2,0.7,1.9c0.1,0.8,0.2,1.5,0.1,2.3h-7.6
			c0,0.9,0.2,1.8,0.8,2.6c0.5,0.7,1.3,1.1,2.2,1c0.8,0,1.6-0.3,2.2-0.9c0.3-0.4,0.5-0.8,0.6-1.2h1.7c-0.1,0.5-0.2,0.9-0.4,1.3
			c-0.2,0.4-0.5,0.8-0.9,1.2c-0.6,0.5-1.2,0.9-2,1.1c-0.5,0.1-0.9,0.2-1.4,0.1c-1.3,0-2.4-0.5-3.3-1.4c-1-1.1-1.4-2.5-1.4-4
			c-0.1-1.5,0.4-2.9,1.4-4.1c0.9-1,2.2-1.6,3.6-1.6C150.3,196,151.1,196.2,151.8,196.5z M152.4,200.6c0-0.6-0.2-1.3-0.5-1.8
			c-0.5-0.8-1.4-1.3-2.4-1.3c-0.8,0-1.5,0.3-2,0.9c-0.6,0.6-0.9,1.4-0.9,2.2L152.4,200.6z"/>
		<path class="st0" d="M166.2,192.4h1.9V205h7.2v1.7h-9.1V192.4z"/>
		<path class="st0" d="M184.7,200.4c0.3,0,0.6-0.2,0.8-0.5c0.1-0.2,0.1-0.4,0.1-0.7c0-0.5-0.2-1-0.6-1.3c-0.6-0.3-1.2-0.4-1.8-0.4
			c-0.7-0.1-1.5,0.2-1.9,0.8c-0.2,0.4-0.4,0.8-0.4,1.2h-1.6c-0.1-1.1,0.4-2.1,1.3-2.7c0.8-0.5,1.8-0.8,2.8-0.8c1,0,2.1,0.2,3,0.7
			c0.8,0.5,1.2,1.3,1.1,2.2v6c0,0.2,0,0.3,0.1,0.4c0.1,0.1,0.3,0.2,0.5,0.2h0.3h0.3v1.3c-0.2,0.1-0.4,0.1-0.6,0.1
			c-0.2,0-0.4,0-0.6,0c-0.5,0-1-0.2-1.3-0.6c-0.2-0.3-0.3-0.6-0.3-1c-0.4,0.5-0.9,0.9-1.6,1.2c-0.7,0.4-1.4,0.5-2.2,0.5
			c-0.9,0-1.7-0.3-2.4-0.9c-0.6-0.6-0.9-1.4-0.9-2.2c-0.1-0.8,0.3-1.7,0.9-2.3c0.7-0.6,1.5-0.9,2.4-1L184.7,200.4z M181,205.1
			c0.4,0.3,0.8,0.4,1.3,0.4c0.6,0,1.2-0.1,1.8-0.4c0.9-0.4,1.5-1.3,1.5-2.3v-1.4c-0.3,0.2-0.5,0.3-0.8,0.3c-0.3,0.1-0.7,0.1-1,0.2
			l-1.1,0.1c-0.5,0-1,0.2-1.4,0.4c-0.5,0.3-0.9,0.9-0.8,1.5C180.4,204.4,180.7,204.8,181,205.1z"/>
		<path class="st0" d="M192.2,196.2h1.7v1.5c0.4-0.6,1-1,1.6-1.3c0.6-0.3,1.2-0.4,1.9-0.4c1.2-0.1,2.4,0.5,3,1.6
			c0.3,0.8,0.5,1.6,0.4,2.4v6.7H199v-6.6c0-0.5-0.1-1.1-0.3-1.5c-0.3-0.7-1-1.1-1.7-1c-0.3,0-0.7,0-1,0.1c-0.9,0.3-1.6,1-1.8,1.9
			c-0.1,0.5-0.1,1.1-0.1,1.6v5.5h-1.8L192.2,196.2z"/>
		<path class="st0" d="M211.8,196.5c0.6,0.3,1.2,0.8,1.6,1.4c0.4,0.6,0.6,1.2,0.7,1.9c0.1,0.8,0.2,1.5,0.2,2.3h-7.6
			c0,0.9,0.2,1.8,0.8,2.6c0.5,0.7,1.3,1.1,2.2,1c0.8,0,1.6-0.3,2.2-0.9c0.3-0.4,0.5-0.8,0.6-1.2h1.7c-0.1,0.5-0.2,0.9-0.4,1.3
			c-0.2,0.4-0.5,0.8-0.9,1.2c-0.6,0.5-1.2,0.9-2,1.1c-0.5,0.1-0.9,0.2-1.4,0.1c-1.2,0-2.4-0.5-3.3-1.4c-1-1.1-1.4-2.5-1.3-4
			c-0.1-1.5,0.4-2.9,1.4-4.1c0.9-1,2.2-1.6,3.6-1.6C210.4,196,211.2,196.2,211.8,196.5z M212.5,200.6c0-0.6-0.2-1.3-0.5-1.8
			c-0.5-0.8-1.4-1.3-2.4-1.3c-0.8,0-1.5,0.3-2,0.9c-0.6,0.6-0.9,1.4-0.9,2.2L212.5,200.6z"/>
		<path class="st0" d="M229.4,192.4h2.2l5.2,14.4h-2.1l-1.5-4.3h-5.6l-1.6,4.3h-2L229.4,192.4z M232.6,200.8l-2.2-6.3l-2.3,6.3
			H232.6z"/>
		<path class="st0" d="M240.3,196.2h1.7v1.8c0.2-0.5,0.6-0.9,1-1.3c0.5-0.5,1.2-0.8,1.9-0.8h0.2h0.4v1.9h-0.3h-0.3
			c-0.8,0-1.5,0.3-2,0.9c-0.5,0.6-0.7,1.3-0.7,2v6h-1.8L240.3,196.2z"/>
		<path class="st0" d="M249.3,193.3h1.8v2.9h1.7v1.4h-1.7v6.8c0,0.3,0.1,0.6,0.4,0.7c0.2,0.1,0.4,0.1,0.7,0.1h0.3h0.4v1.4
			c-0.2,0.1-0.4,0.1-0.6,0.1c-0.2,0-0.5,0-0.7,0c-0.6,0.1-1.3-0.2-1.7-0.6c-0.3-0.5-0.5-1.1-0.4-1.6v-6.9h-1.4v-1.4h1.4L249.3,193.3
			z"/>
		<path class="st0" d="M265.6,202.1c0,0.7,0.2,1.4,0.6,2c0.8,1,2,1.6,3.3,1.4c0.7,0,1.3-0.1,1.9-0.3c1-0.2,1.7-1.1,1.7-2.2
			c0.1-0.6-0.2-1.3-0.7-1.7c-0.7-0.4-1.5-0.7-2.3-0.9l-1.9-0.5c-0.9-0.2-1.8-0.5-2.6-0.9c-0.9-0.6-1.4-1.6-1.3-2.7
			c0-1.2,0.4-2.4,1.3-3.2c1-0.8,2.3-1.3,3.6-1.2c1.3,0,2.6,0.3,3.7,1.1c1.1,0.8,1.6,2.1,1.5,3.5h-1.8c0-0.6-0.2-1.2-0.6-1.8
			c-0.7-0.8-1.8-1.2-2.9-1.1c-0.9-0.1-1.7,0.2-2.4,0.7c-0.5,0.4-0.7,1-0.7,1.7c0,0.6,0.3,1.2,0.9,1.5c0.8,0.4,1.7,0.6,2.5,0.8l2,0.5
			c0.8,0.1,1.5,0.5,2.2,0.9c0.9,0.7,1.4,1.8,1.3,2.9c0.1,1.4-0.5,2.7-1.7,3.4c-1.2,0.7-2.6,1-3.9,1c-1.5,0.1-2.9-0.4-4.1-1.4
			c-1-0.9-1.5-2.3-1.5-3.7L265.6,202.1z"/>
		<path class="st0" d="M279.3,196.3h1.7v1.4c0.3-0.4,0.7-0.8,1.2-1.1c0.6-0.4,1.4-0.6,2.1-0.6c1.2,0,2.2,0.5,3,1.4
			c0.9,1.1,1.3,2.5,1.2,3.9c0,2.3-0.6,3.9-1.8,4.9c-0.7,0.6-1.7,0.9-2.6,0.9c-0.7,0-1.4-0.2-2-0.5c-0.4-0.3-0.8-0.6-1-1v5.3h-1.8
			L279.3,196.3z M285.9,204.5c0.6-0.9,0.9-2,0.8-3.1c0-0.7-0.1-1.5-0.4-2.1c-0.5-1.4-2-2.1-3.4-1.6c-0.8,0.3-1.3,0.9-1.6,1.7
			c-0.3,0.8-0.4,1.6-0.4,2.5c0,0.7,0.1,1.4,0.4,2.1c0.4,1,1.4,1.7,2.5,1.6C284.6,205.5,285.4,205.1,285.9,204.5L285.9,204.5z"/>
		<path class="st0" d="M298.2,200.4c0.3,0,0.6-0.2,0.8-0.5c0.1-0.2,0.1-0.4,0.1-0.7c0-0.5-0.2-1-0.6-1.3c-0.6-0.3-1.2-0.4-1.8-0.4
			c-0.7-0.1-1.5,0.2-2,0.8c-0.2,0.4-0.4,0.8-0.4,1.2h-1.6c-0.1-1.1,0.4-2.1,1.3-2.7c0.8-0.5,1.8-0.8,2.8-0.8c1-0.1,2.1,0.2,3,0.7
			c0.8,0.5,1.2,1.3,1.1,2.2v6c0,0.2,0,0.3,0.1,0.4c0.1,0.1,0.3,0.2,0.5,0.2h0.3h0.3v1.3c-0.2,0.1-0.4,0.1-0.6,0.1
			c-0.2,0-0.4,0-0.6,0c-0.5,0-1-0.2-1.3-0.6c-0.2-0.3-0.3-0.6-0.3-1c-0.4,0.5-0.9,0.9-1.5,1.2c-0.7,0.4-1.4,0.5-2.2,0.5
			c-0.9,0-1.7-0.3-2.4-0.9c-0.6-0.6-0.9-1.4-0.9-2.2c-0.1-0.8,0.3-1.7,0.9-2.3c0.7-0.6,1.5-0.9,2.4-1L298.2,200.4z M294.5,205.1
			c0.4,0.3,0.8,0.4,1.3,0.4c0.6,0,1.2-0.1,1.8-0.4c0.9-0.4,1.5-1.3,1.5-2.3v-1.4c-0.3,0.2-0.5,0.3-0.8,0.3c-0.3,0.1-0.7,0.1-1,0.2
			l-1.1,0.1c-0.5,0-1,0.2-1.4,0.4c-0.5,0.3-0.9,0.9-0.8,1.5C293.9,204.4,294.1,204.8,294.5,205.1L294.5,205.1z"/>
		<path class="st0" d="M312.6,196.8c0.8,0.8,1.3,1.9,1.3,3h-1.7c-0.1-0.6-0.3-1.2-0.7-1.6c-0.5-0.5-1.1-0.7-1.8-0.6
			c-1.1,0-2,0.6-2.4,1.6c-0.3,0.8-0.5,1.7-0.5,2.6c0,0.9,0.2,1.8,0.7,2.6c0.8,1.2,2.4,1.4,3.6,0.6c0.1-0.1,0.2-0.1,0.2-0.2
			c0.5-0.5,0.8-1.2,0.9-1.9h1.7c-0.1,2.3-2,4.1-4.3,4c-0.1,0-0.1,0-0.2,0c-1.3,0-2.5-0.5-3.3-1.5c-0.8-1.1-1.3-2.4-1.2-3.7
			c-0.1-1.5,0.4-3.1,1.3-4.3c0.8-1,2.1-1.6,3.4-1.5C310.7,195.9,311.7,196.2,312.6,196.8z"/>
		<path class="st0" d="M324.1,196.5c0.6,0.3,1.2,0.8,1.6,1.4c0.4,0.6,0.6,1.2,0.7,1.9c0.1,0.8,0.2,1.5,0.1,2.3h-7.6
			c0,0.9,0.2,1.8,0.7,2.6c0.5,0.7,1.3,1.1,2.2,1c0.8,0,1.6-0.3,2.2-0.9c0.3-0.4,0.5-0.8,0.6-1.2h1.7c-0.1,0.5-0.2,0.9-0.5,1.3
			c-0.2,0.4-0.5,0.8-0.9,1.2c-0.6,0.5-1.2,0.9-2,1.1c-0.5,0.1-0.9,0.2-1.4,0.1c-1.2,0-2.4-0.5-3.3-1.4c-1-1.1-1.4-2.5-1.4-4
			c-0.1-1.5,0.4-2.9,1.4-4.1c0.9-1,2.2-1.6,3.5-1.6C322.7,196,323.4,196.2,324.1,196.5z M324.7,200.6c0-0.6-0.2-1.3-0.5-1.8
			c-0.5-0.9-1.4-1.3-2.4-1.3c-0.8,0-1.5,0.3-2,0.9c-0.6,0.6-0.9,1.4-0.9,2.2L324.7,200.6z"/>
	</g>
</g>
<g id="轉角三巷藝術空間_2">
	<g>
		<path class="st0" d="M5.7,150.7v-3.4H0.2v-2.4h5.5v-3.6h2.6v3.6h5.4v2.4H8.4v3.4h4.8V166H8.4v3.4H14v2.4H8.4v6H5.7v-6H0v-2.4h5.8
			V166h-5v-15.3H5.7z M6,157.2v-4.4H3v4.4H6z M6,159.4H3v4.4h3V159.4z M8.1,157.2h3v-4.4h-3V157.2z M11.1,159.4h-3v4.4h3V159.4z
			 M23.7,143.3v-2.2h2.7v2.2H35v2.3h-8.6v2.2H34v11.5h-1.3c1.2,1.6,2.3,3.2,3.3,4.9l-1.8,1.3c-0.4-0.6-0.8-1.3-1.2-2
			c-0.6,0.1-1.2,0.1-1.9,0.2v3.3h4.7v2.4h-4.6v5.4c0,2-1,3-2.8,3h-4l-0.6-2.6c1.2,0.1,2.4,0.2,3.6,0.2c0.7,0,1.1-0.4,1.1-1.2v-4.8
			H15.3V167h13.2v-3c-3.6,0.2-7.9,0.4-13,0.6l-0.3-2.3l8.5-0.2v-2.7h-7.6v-11.5h7.6v-2.2h-8.5v-2.3L23.7,143.3z M23.2,173.4
			l-1.4,2.2c-1.6-1.5-3.4-2.8-5.4-3.8l1.3-1.9C19.7,170.8,21.5,172,23.2,173.4L23.2,173.4z M23.9,152.6v-2.8h-5.4v2.8H23.9z
			 M23.9,154.6h-5.4v2.9h5.3L23.9,154.6z M26.3,152.6h5.3v-2.8h-5.3L26.3,152.6z M31.5,154.6h-5.3v2.9h5.3L31.5,154.6z M30.2,159.4
			h-3.9v2.6c2-0.1,3.8-0.2,5.5-0.3C31.3,160.9,30.7,160.1,30.2,159.4L30.2,159.4z"/>
		<path class="st0" d="M46.7,178l-2.2-2c2.9-3.6,4.3-8.2,4.4-13.8v-9.5c-1.1,0.8-2.2,1.5-3.3,2.2l-1.8-2.2c5-2.9,9.3-7,12.5-11.9
			l2.9,0.6c-0.6,1-1.3,2-2,2.9h15v2.1c-1.7,1.7-3.5,3.2-5.4,4.6H77v23c0,2.4-1.3,3.6-3.9,3.6H68l-0.8-2.6c1.8,0.1,3.5,0.2,5,0.2
			c1.3,0,2-0.7,2-2v-4.4H64v8.4h-2.9v-8.5H51C50.3,172.1,48.8,175.3,46.7,178z M62.5,151.1c2-1.2,3.9-2.6,5.6-4.1h-13
			c-1.3,1.5-2.7,2.9-4.2,4.2L62.5,151.1z M51.7,162.1c0,1.4-0.1,2.8-0.3,4.1h9.7v-4.8h-9.4V162.1z M51.7,153.7v5.1h9.4v-5.1H51.7z
			 M74.2,153.7H64v5.1h10.2V153.7z M74.2,161.4H64v4.8h10.2V161.4z"/>
		<path class="st0" d="M123.9,172.9v2.9H87.8v-2.9H123.9z M121,144.2v2.8H90.7v-2.8L121,144.2z M118.3,158.1v2.8H93.4v-2.8H118.3z"
			/>
		<path class="st0" d="M142.4,145.8v-4.4h2.8v4.4h9.4v-4.4h2.8v4.4h7.8v2.6h-7.8v5h9.7v2.6h-9.6c2.2,3.7,5.8,6.6,10.7,8.7l-1.2,2.6
			c-3.1-1.5-5.9-3.4-8.4-5.9v7.9h-16v3.6c0,1,0.6,1.6,1.7,1.6h14c1,0.1,1.9-0.4,2.4-1.1c0.5-1.4,0.8-2.9,0.9-4.4l2.6,0.8
			c-0.1,1.7-0.5,3.4-1,5c-0.7,1.5-2.1,2.3-4.1,2.4h-15.8c-2.3,0-3.4-1.1-3.4-3.3v-11.3c-2.2,1.9-4.6,3.6-7.1,4.9l-1.5-2.4
			c5.3-2.7,8.9-5.8,10.7-9.2h-9.4v-2.6h9.8v-5h-7.8v-2.6L142.4,145.8z M157.2,159.8c-1-1.2-1.9-2.5-2.6-3.9h-9.7
			c-0.7,1.4-1.5,2.7-2.4,3.9H157.2z M155.9,166.7v-4.3h-13.2v4.3H155.9z M154.5,153.3v-5h-9.4v5H154.5z"/>
		<path class="st0" d="M211.5,169.9v2.1h-9.1c2.5,1.3,4.9,2.7,7.2,4.3L208,178c-0.9-0.8-1.9-1.5-2.9-2.1c-6.2,0.7-14.3,1.2-24.4,1.6
			l-0.5-2.2c0.4,0,0.8-0.1,1.2-0.3c1.7-0.9,3.2-1.9,4.8-3h-10v-2.1L211.5,169.9z M184.3,149.1v-1.5h2.6v1.5h6v2h-6v1.8h7.4v2h-4.4
			c1.6,0.8,3.1,1.8,4.5,2.8l-1.3,1.3c-1.6-1.3-3.3-2.5-5.1-3.4l0.8-0.7h-7l1,0.8c-1.6,1.6-3.4,3-5.4,4l-1.2-1.5
			c1.8-0.9,3.4-2,4.8-3.4h-4v-2h7.4V151h-6v-2L184.3,149.1z M185.7,143.2v-2.1h2.7v2.1h10.9v-2.1h2.7v2.1h9v2.3h-9v1.6h-2.7v-1.6
			h-10.9v1.6h-2.7v-1.6h-8.9v-2.3H185.7z M184.4,158.3v-2.1h2.4v2.1h4.8v1.7h-4.8v2.2l6.2-0.2v1.8c-4.6,0.2-9.9,0.4-15.8,0.6
			l-0.3-1.9c2.6-0.1,5.1-0.1,7.5-0.2V160h-4.8v-1.7L184.4,158.3z M207.7,166.1v1.9H180v-1.9H207.7z M184.2,175.3
			c7.2-0.3,13.3-0.6,18.2-1c-1-0.6-1.9-1.1-2.9-1.6l0.7-0.7h-11C187.7,173.2,186,174.3,184.2,175.3L184.2,175.3z M207,164.1
			c-0.6-0.6-1.1-1.4-1.3-2.3c-0.3-1.4-0.4-2.9-0.4-4.4c0-1.5,0.1-3.2,0.2-5h-3.6l0,0c0,2-0.3,4.1-1,6c1.2,0.8,2.3,1.7,3.4,2.7
			l-1.7,1.6c-0.8-0.8-1.7-1.6-2.6-2.3c-1,1.8-2.3,3.3-4,4.4l-1.8-1.6c1.6-1.1,3-2.5,3.9-4.3c-1.1-0.7-2.3-1.4-3.6-2l1.3-1.5
			c1,0.4,2,1,3,1.6c0.4-1.5,0.6-3,0.7-4.6l0,0H195v-2.3h4.4v-2.3h2.4v2.3h6.2c-0.2,2.6-0.4,5.1-0.4,7.4c0,1.1,0.1,2.2,0.2,3.4
			c0.2,0.8,0.5,1.2,0.8,1.3c0.4-0.1,0.8-0.5,1-1.2c0.2-1,0.4-2,0.5-3l2,0.9c-0.4,2.5-0.8,4.1-1.5,5c-0.4,0.6-1.1,1-1.8,1.1
			C208.1,164.9,207.5,164.6,207,164.1z"/>
		<path class="st0" d="M230.1,142.4c-2.3,4.6-5.7,8.6-9.9,11.6l-0.8-2.8c3.5-2.6,6.3-6,8.2-9.9L230.1,142.4z M230.5,152.4
			c-0.8,1.7-1.8,3.4-2.9,5v20.4h-2.8v-17c-1.4,1.4-2.9,2.8-4.4,4l-0.8-2.7c3.6-2.9,6.5-6.5,8.4-10.7L230.5,152.4z M231.3,152.9v-2.6
			h5v-9h2.6v9h5.1v2.7H239v3.9c2,2.5,4,5.4,6.1,8.6l-1.6,2.4c-1.7-3.3-3.2-5.9-4.5-7.9v17.9h-2.6v-17.9c-1.2,4.6-3.2,8.9-5.7,12.9
			l-1.6-2.6c3.2-4.5,5.5-10.2,6.8-17.2H231.3z M244.5,148l-2,0.9c-0.6-1.8-1.2-3.6-2-5.3l2-0.7C243.3,144.6,244,146.3,244.5,148
			L244.5,148z M245.3,177.5l-0.6-2.7c1.3,0.1,2.5,0.2,3.6,0.2c0.7,0.1,1.3-0.4,1.4-1.1c0-0.1,0-0.2,0-0.3v-16.8h-4.8v-2.8H256v2.8
			h-3.5v17.5c0,2.1-1.1,3.2-3.2,3.2H245.3z M255.4,143.9v2.7h-9.8v-2.7H255.4z"/>
		<path class="st0" d="M295.5,161.6v2.7h-12.3v9.5h15.6v2.8h-34.1v-2.8h15.6v-9.5h-12.2v-2.7H295.5z M283.5,145.1h15.3v8h-2.9v-5.4
			h-28.1v5.3h-2.9v-8h15.7c-0.5-1.3-1-2.5-1.7-3.7l3.1-0.4C282.5,142.2,283,143.6,283.5,145.1L283.5,145.1z M279,152.7
			c-3.4,3-7.4,5.4-11.6,7l-1.2-2.6c4.1-1.4,7.8-3.6,11.1-6.5L279,152.7z M297,157.4l-1.6,2.4c-3.5-2.9-7.3-5.3-11.4-7.2l1.5-2.3
			C289.6,152.2,293.5,154.6,297,157.4z"/>
		<path class="st0" d="M323.8,156h-11.2v21.8h-2.9v-35.3h14.1V156z M320.9,145.1h-8.4v3h8.4V145.1z M312.5,153.4h8.4v-3h-8.4V153.4z
			 M333.1,158.9v15.4h-14.7v-15.5L333.1,158.9z M330.4,165.4v-4.1h-9.2v4.1H330.4z M330.4,167.7h-9.2v4.2h9.2V167.7z M327.6,156
			v-13.5H342v32.2c0.2,1.5-0.9,2.8-2.4,3c-0.2,0-0.4,0-0.6,0c-1.4,0-2.7,0-4-0.1l-0.8-2.8c1.4,0.1,2.6,0.2,3.8,0.2
			c0.6,0.1,1.2-0.4,1.2-1c0-0.1,0-0.2,0-0.3V156H327.6z M339.1,145.1h-8.6v3h8.6V145.1z M330.5,153.4h8.6v-3h-8.6V153.4z"/>
	</g>
</g>
<g id="组_2">
	<path id="矩形_4" class="st1" d="M140.1,0h70.3c11.2,0,20.3,9.1,20.3,20.3v10h-90.6V0z"/>
	<rect id="矩形_5" x="117.1" y="41.7" class="st2" width="87.3" height="30.3"/>
	<path id="矩形_6" class="st0" d="M230.7,113.6h-93.3c-11.2,0-20.3-9.1-20.3-20.3v-10h113.6V113.6L230.7,113.6z"/>
</g>
</svg>
