<?xml version="1.0" encoding="utf-8"?>
<!-- Generator: Adobe Illustrator 24.1.3, SVG Export Plug-In . SVG Version: 6.00 Build 0)  -->
<svg version="1.1" id="圖層_1" xmlns="http://www.w3.org/2000/svg" xmlns:xlink="http://www.w3.org/1999/xlink" x="0px" y="0px"
	 viewBox="0 0 463.5 90.4" style="enable-background:new 0 0 463.5 90.4;" xml:space="preserve">
<style type="text/css">
	.st0{fill:#AFAFAF;}
</style>
<g>
	<g id="Corner_Three_Lane_Art_Space">
		<g>
			<path class="st0" d="M50.8,68.6c1.2,1.1,1.9,2.5,2.1,4.1h-2.4c-0.2-1.1-0.8-2-1.6-2.8c-1-0.7-2.1-1.1-3.3-1
				c-1.6-0.1-3.2,0.6-4.2,1.9c-1.1,1.2-1.6,3.1-1.6,5.7c-0.1,1.8,0.4,3.6,1.4,5.1c1,1.4,2.6,2.1,4.3,2c1.6,0.1,3.1-0.7,4-2.1
				c0.6-0.9,0.9-1.8,1.1-2.8H53c-0.2,1.8-0.9,3.4-2.1,4.8c-1.5,1.5-3.5,2.4-5.6,2.3c-1.9,0.1-3.8-0.6-5.2-1.9
				c-1.9-1.7-2.8-4.2-2.8-7.7c-0.1-2.3,0.6-4.7,2.1-6.5c1.5-1.8,3.8-2.9,6.2-2.8C47.5,66.7,49.4,67.3,50.8,68.6z"/>
			<path class="st0" d="M67.9,73.5c1.3,1.4,1.9,3.2,1.7,5c0.1,1.9-0.5,3.7-1.5,5.2c-1.2,1.4-2.9,2.2-4.8,2c-1.6,0.1-3.2-0.6-4.3-1.8
				c-1.1-1.4-1.7-3.1-1.6-4.9c-0.1-1.9,0.5-3.8,1.7-5.2c1.1-1.3,2.7-2.1,4.5-2C65.2,71.7,66.7,72.4,67.9,73.5z M66.5,82.2
				c0.5-1.2,0.8-2.4,0.8-3.7c0-1-0.2-2.1-0.6-3c-0.6-1.2-1.8-1.9-3.2-1.8c-1.2-0.1-2.3,0.5-2.9,1.5c-0.6,1.1-0.9,2.4-0.9,3.7
				c0,1.2,0.3,2.4,0.9,3.5c0.6,0.9,1.7,1.5,2.9,1.4C64.8,83.9,65.9,83.3,66.5,82.2z"/>
			<path class="st0" d="M74.8,72.2h2.1v2.3c0.3-0.6,0.7-1.2,1.3-1.6c0.6-0.6,1.4-1,2.3-0.9h0.2l0.5,0.1v2.3h-0.4h-0.4
				c-1-0.1-1.9,0.3-2.6,1.1C77.3,76,77,76.9,77,77.8v7.5h-2.2V72.2z"/>
			<path class="st0" d="M85.6,72.2h2.1V74c0.5-0.7,1.2-1.3,2-1.7c0.7-0.3,1.5-0.5,2.3-0.5c1.5-0.2,3,0.6,3.8,1.9
				c0.4,0.9,0.6,2,0.5,3v8.4H94V77c0-0.7-0.1-1.3-0.3-1.9c-0.4-0.8-1.2-1.3-2.1-1.2c-0.4,0-0.8,0-1.2,0.2c-0.6,0.2-1.2,0.6-1.6,1.1
				c-0.3,0.4-0.6,0.8-0.7,1.3c-0.1,0.7-0.2,1.3-0.2,2v6.8h-2.2V72.2z"/>
			<path class="st0" d="M110.1,72.5c0.8,0.4,1.5,1,2,1.7c0.5,0.7,0.8,1.5,0.9,2.3c0.2,1,0.2,1.9,0.2,2.9h-9.5c0,1.1,0.3,2.3,0.9,3.2
				c0.6,0.8,1.7,1.3,2.7,1.2c1,0,2-0.4,2.7-1.1c0.4-0.4,0.7-1,0.8-1.5h2.2c-0.1,0.6-0.3,1.1-0.6,1.6c-0.3,0.5-0.6,1-1.1,1.5
				c-0.7,0.7-1.5,1.1-2.4,1.3c-0.6,0.1-1.2,0.2-1.8,0.2c-1.6,0-3.1-0.6-4.1-1.8c-1.2-1.4-1.8-3.1-1.7-4.9c-0.1-1.9,0.5-3.7,1.7-5.1
				c1.1-1.3,2.7-2,4.4-2C108.4,71.9,109.3,72.1,110.1,72.5z M110.9,77.7c0-0.8-0.2-1.6-0.6-2.3c-0.6-1.1-1.8-1.7-3-1.6
				c-1,0-1.9,0.4-2.5,1.1c-0.7,0.8-1.1,1.8-1.1,2.8H110.9z"/>
			<path class="st0" d="M118.5,72.2h2.1v2.3c0.3-0.6,0.7-1.2,1.3-1.6c0.6-0.6,1.4-1,2.3-0.9h0.2l0.5,0.1v2.3h-0.4h-0.3
				c-1-0.1-1.9,0.3-2.6,1.1c-0.6,0.7-0.9,1.6-0.9,2.5v7.5h-2.2V72.2z"/>
			<path class="st0" d="M151.6,67.3v2.1h-6v15.8h-2.4V69.4h-6v-2.1H151.6z"/>
			<path class="st0" d="M156,67.2h2.2v6.7c0.4-0.5,0.9-1,1.4-1.4c0.8-0.5,1.7-0.7,2.7-0.7c1.9,0,3.2,0.7,3.9,2c0.4,0.9,0.6,2,0.6,3
				v8.4h-2.3V77c0-0.7-0.1-1.4-0.4-2.1c-0.5-0.8-1.4-1.2-2.3-1.1c-0.9,0-1.8,0.3-2.5,0.9c-0.7,0.6-1.1,1.8-1.1,3.6v6.9H156V67.2z"/>
			<path class="st0" d="M172.5,72.2h2.1v2.3c0.3-0.6,0.7-1.2,1.3-1.6c0.6-0.6,1.4-1,2.3-0.9h0.2l0.5,0.1v2.3h-0.4h-0.4
				c-1-0.1-1.9,0.3-2.6,1.1c-0.6,0.7-0.9,1.6-0.9,2.5v7.5h-2.2L172.5,72.2z"/>
			<path class="st0" d="M191.3,72.5c0.8,0.4,1.5,1,2,1.7c0.5,0.7,0.7,1.5,0.9,2.3c0.2,1,0.2,1.9,0.2,2.9h-9.5c0,1.1,0.3,2.3,0.9,3.2
				c0.6,0.8,1.7,1.3,2.7,1.2c1,0,2-0.4,2.7-1.1c0.4-0.4,0.7-1,0.8-1.5h2.2c-0.1,0.6-0.3,1.1-0.6,1.6c-0.3,0.5-0.6,1-1.1,1.4
				c-0.7,0.7-1.5,1.1-2.5,1.3c-0.6,0.1-1.2,0.2-1.8,0.2c-1.6,0-3.1-0.6-4.1-1.8c-1.2-1.4-1.8-3.2-1.7-5c-0.1-1.9,0.5-3.7,1.7-5.1
				c1.1-1.3,2.7-2,4.4-2C189.6,71.8,190.5,72.1,191.3,72.5z M192.1,77.7c0-0.8-0.3-1.6-0.6-2.3c-0.6-1.1-1.8-1.7-3-1.6
				c-1,0-1.9,0.4-2.5,1.1c-0.7,0.8-1.1,1.8-1.1,2.8L192.1,77.7z"/>
			<path class="st0" d="M207.7,72.5c0.8,0.4,1.5,1,2,1.7c0.5,0.7,0.8,1.5,0.9,2.3c0.1,1,0.2,1.9,0.2,2.9h-9.5c0,1.1,0.3,2.3,0.9,3.2
				c0.6,0.8,1.7,1.3,2.7,1.2c1,0,2-0.4,2.7-1.1c0.4-0.4,0.7-1,0.8-1.5h2.2c-0.1,0.6-0.3,1.1-0.6,1.6c-0.3,0.5-0.6,1-1.1,1.4
				c-0.7,0.7-1.5,1.1-2.5,1.3c-0.6,0.1-1.2,0.2-1.8,0.2c-1.6,0-3.1-0.6-4.1-1.8c-1.2-1.4-1.8-3.2-1.7-5c-0.1-1.9,0.5-3.7,1.7-5.1
				c1.1-1.3,2.7-2,4.4-2C206,71.8,206.9,72.1,207.7,72.5z M208.5,77.7c0-0.8-0.3-1.6-0.6-2.3c-0.6-1.1-1.8-1.7-3-1.6
				c-1,0-1.9,0.4-2.5,1.1c-0.7,0.8-1.1,1.8-1.1,2.8L208.5,77.7z"/>
			<path class="st0" d="M225.8,67.3h2.4v15.8h9v2.1h-11.4V67.3z"/>
			<path class="st0" d="M248.9,77.3c0.4,0,0.8-0.3,1-0.6c0.1-0.3,0.2-0.6,0.1-0.8c0-0.6-0.3-1.3-0.8-1.6c-0.7-0.4-1.5-0.6-2.3-0.5
				c-0.9-0.1-1.8,0.3-2.4,0.9c-0.3,0.5-0.5,1-0.5,1.5H242c-0.1-1.3,0.5-2.6,1.6-3.4c1.1-0.6,2.3-1,3.5-0.9c1.3-0.1,2.6,0.2,3.7,0.9
				c0.9,0.6,1.5,1.6,1.4,2.7V83c0,0.2,0,0.4,0.1,0.6c0.1,0.1,0.3,0.2,0.6,0.2h0.3l0.4-0.1v1.6c-0.3,0.1-0.5,0.1-0.8,0.2
				c-0.2,0-0.5,0-0.7,0c-0.7,0-1.3-0.3-1.6-0.8c-0.2-0.4-0.3-0.8-0.4-1.2c-0.5,0.7-1.2,1.2-1.9,1.5c-0.9,0.4-1.8,0.7-2.8,0.7
				c-1.1,0.1-2.2-0.4-3-1.1c-0.7-0.7-1.1-1.7-1.1-2.7c-0.1-1.1,0.3-2.1,1.1-2.8c0.8-0.7,1.9-1.1,3-1.2L248.9,77.3z M244.3,83.3
				c0.5,0.4,1.1,0.6,1.6,0.6c0.8,0,1.6-0.2,2.3-0.5c1.2-0.5,1.9-1.7,1.8-2.9v-1.8c-0.3,0.2-0.6,0.3-1,0.4c-0.4,0.1-0.8,0.2-1.2,0.2
				l-1.3,0.2c-0.6,0.1-1.2,0.2-1.8,0.5c-0.7,0.4-1,1.1-1,1.8C243.6,82.3,243.9,82.9,244.3,83.3z"/>
			<path class="st0" d="M258.3,72.2h2.1V74c0.5-0.7,1.2-1.3,2-1.7c0.7-0.3,1.5-0.5,2.3-0.5c1.5-0.2,3,0.6,3.8,1.9
				c0.4,0.9,0.6,2,0.5,3v8.4h-2.2V77c0-0.7-0.1-1.3-0.4-1.9c-0.4-0.8-1.2-1.3-2.1-1.2c-0.4,0-0.9,0-1.3,0.2
				c-0.6,0.2-1.2,0.6-1.6,1.1c-0.3,0.4-0.6,0.8-0.7,1.3c-0.1,0.7-0.2,1.3-0.2,2v6.8h-2.2V72.2z"/>
			<path class="st0" d="M282.8,72.5c0.8,0.4,1.5,1,2,1.7c0.5,0.7,0.8,1.5,0.9,2.3c0.2,1,0.2,1.9,0.2,2.9h-9.5c0,1.1,0.3,2.3,0.9,3.2
				c0.6,0.8,1.7,1.3,2.7,1.2c1,0,2-0.4,2.7-1.1c0.4-0.4,0.7-1,0.8-1.5h2.2c-0.1,0.6-0.3,1.1-0.6,1.6c-0.3,0.5-0.6,1-1.1,1.4
				c-0.7,0.7-1.5,1.1-2.4,1.3c-0.6,0.1-1.2,0.2-1.8,0.2c-1.6,0-3.1-0.6-4.1-1.8c-1.2-1.4-1.8-3.2-1.7-5c-0.1-1.9,0.5-3.7,1.7-5.1
				c1.1-1.3,2.7-2,4.4-2C281,71.8,282,72.1,282.8,72.5z M283.6,77.7c0-0.8-0.3-1.6-0.6-2.3c-0.6-1.1-1.8-1.7-3-1.6
				c-1,0-1.9,0.4-2.5,1.1c-0.7,0.8-1.1,1.8-1.1,2.8L283.6,77.7z"/>
			<path class="st0" d="M304.7,67.3h2.7l6.5,17.9h-2.7l-1.9-5.4h-7l-1.9,5.4H298L304.7,67.3z M308.7,77.9L306,70l-2.9,7.9
				L308.7,77.9z"/>
			<path class="st0" d="M318.4,72.2h2.1v2.3c0.3-0.6,0.7-1.2,1.3-1.6c0.6-0.6,1.4-1,2.3-0.9h0.2l0.5,0.1v2.3h-0.4h-0.4
				c-1-0.1-1.9,0.3-2.5,1.1c-0.6,0.7-0.9,1.6-0.9,2.5v7.5h-2.2L318.4,72.2z"/>
			<path class="st0" d="M329.6,68.5h2.2v3.7h2.1V74h-2.1v8.5c0,0.4,0.1,0.7,0.5,0.9c0.3,0.1,0.6,0.1,0.9,0.1h0.3c0.1,0,0.3,0,0.4,0
				v1.8c-0.3,0.1-0.5,0.1-0.8,0.2c-0.3,0-0.6,0-0.9,0c-0.8,0.1-1.6-0.2-2.1-0.8c-0.4-0.6-0.6-1.3-0.5-2V74h-1.8v-1.8h1.8V68.5z"/>
			<path class="st0" d="M350,79.4c0,0.9,0.3,1.7,0.7,2.5c0.8,1.2,2.1,1.8,4.1,1.8c0.8,0,1.6-0.1,2.4-0.4c1.2-0.3,2.1-1.4,2.1-2.7
				c0.1-0.8-0.3-1.6-0.9-2.1c-0.9-0.5-1.8-0.9-2.8-1.1l-2.4-0.6c-1.1-0.2-2.2-0.6-3.3-1.2c-1.1-0.8-1.7-2-1.6-3.4
				c-0.1-1.5,0.5-3,1.6-4c1.3-1.1,2.9-1.7,4.6-1.6c1.7,0,3.3,0.4,4.7,1.4c1.3,1,2.1,2.7,1.9,4.4h-2.3c0-0.8-0.3-1.6-0.8-2.2
				c-0.9-1-2.3-1.5-3.6-1.3c-1.1-0.1-2.2,0.2-3,0.9c-0.6,0.5-0.9,1.3-0.9,2.1c-0.1,0.8,0.4,1.5,1.1,1.9c1,0.5,2.1,0.8,3.2,1l2.4,0.6
				c1,0.2,1.9,0.6,2.7,1.1c1.1,0.9,1.7,2.2,1.6,3.7c0.1,1.7-0.7,3.3-2.1,4.3c-1.5,0.9-3.2,1.3-4.9,1.3c-1.9,0.1-3.7-0.5-5.1-1.7
				c-1.3-1.2-1.9-2.9-1.8-4.6L350,79.4z"/>
			<path class="st0" d="M367.1,72.2h2.1V74c0.4-0.5,0.9-1,1.5-1.4c0.8-0.5,1.7-0.8,2.6-0.7c1.4,0,2.8,0.6,3.8,1.7
				c1.1,1.4,1.7,3.1,1.5,4.9c0,2.8-0.7,4.9-2.2,6.1c-0.9,0.8-2.1,1.2-3.3,1.2c-0.9,0-1.7-0.2-2.5-0.7c-0.5-0.4-0.9-0.8-1.3-1.3v6.7
				h-2.2L367.1,72.2z M375.3,82.5c0.8-1.1,1.1-2.5,1-3.8c0-0.9-0.1-1.8-0.5-2.7c-0.6-1.7-2.5-2.6-4.3-2c-1,0.4-1.7,1.1-2,2.1
				c-0.3,1-0.5,2-0.5,3.1c0,0.9,0.1,1.8,0.5,2.6c0.7,1.7,2.7,2.5,4.4,1.8C374.5,83.3,374.9,82.9,375.3,82.5L375.3,82.5z"/>
			<path class="st0" d="M390.7,77.3c0.4,0,0.8-0.3,1-0.6c0.1-0.3,0.2-0.6,0.1-0.8c0-0.6-0.3-1.3-0.8-1.6c-0.7-0.4-1.5-0.6-2.3-0.5
				c-0.9-0.1-1.8,0.3-2.4,0.9c-0.3,0.5-0.5,1-0.5,1.5h-2c-0.1-1.3,0.5-2.6,1.6-3.4c1.1-0.6,2.3-1,3.5-0.9c1.3-0.1,2.6,0.2,3.7,0.9
				c0.9,0.6,1.5,1.6,1.4,2.7V83c0,0.2,0,0.4,0.1,0.6c0.1,0.1,0.3,0.2,0.6,0.2h0.3l0.4-0.1v1.6c-0.3,0.1-0.5,0.1-0.8,0.2
				c-0.2,0-0.5,0-0.7,0c-0.7,0-1.3-0.3-1.6-0.8c-0.2-0.4-0.3-0.8-0.4-1.2c-0.5,0.7-1.2,1.2-1.9,1.5c-0.9,0.4-1.8,0.7-2.8,0.7
				c-1.1,0.1-2.2-0.4-3-1.1c-0.8-0.7-1.2-1.7-1.2-2.8c0-1.1,0.4-2.1,1.2-2.8c0.8-0.7,1.9-1.1,3-1.2L390.7,77.3z M386,83.3
				c0.5,0.4,1.1,0.6,1.6,0.6c0.8,0,1.6-0.2,2.3-0.5c1.2-0.5,1.9-1.7,1.8-2.9v-1.8c-0.3,0.2-0.6,0.3-1,0.4c-0.4,0.1-0.8,0.2-1.2,0.2
				l-1.3,0.2c-0.6,0.1-1.2,0.2-1.8,0.5c-0.7,0.4-1,1.1-1,1.8C385.4,82.3,385.6,82.9,386,83.3L386,83.3z"/>
			<path class="st0" d="M408.7,72.9c1,1,1.6,2.3,1.7,3.7h-2.1c-0.1-0.7-0.4-1.4-0.9-2c-0.6-0.6-1.4-0.9-2.2-0.8c-1.3,0-2.5,0.8-3,2
				c-0.4,1-0.6,2.2-0.6,3.3c0,1.2,0.2,2.3,0.8,3.3c1,1.4,3.1,1.8,4.5,0.7c0.1-0.1,0.2-0.1,0.3-0.2c0.6-0.6,1-1.4,1.1-2.3h2.1
				c-0.1,2.9-2.5,5.1-5.3,5c-0.1,0-0.2,0-0.2,0c-1.6,0.1-3.1-0.6-4.1-1.9c-1-1.3-1.6-3-1.5-4.7c-0.1-1.9,0.5-3.8,1.7-5.4
				c1.1-1.3,2.6-2,4.3-1.9C406.4,71.7,407.7,72.1,408.7,72.9z"/>
			<path class="st0" d="M423.1,72.5c0.8,0.4,1.5,1,2,1.7c0.5,0.7,0.8,1.5,0.9,2.3c0.2,1,0.2,1.9,0.2,2.9h-9.5c0,1.1,0.3,2.3,0.9,3.2
				c0.6,0.8,1.7,1.3,2.7,1.2c1,0,2-0.4,2.7-1.1c0.4-0.4,0.7-1,0.8-1.5h2.2c-0.1,0.6-0.3,1.1-0.6,1.6c-0.3,0.5-0.6,1-1.1,1.4
				c-0.7,0.7-1.5,1.1-2.5,1.3c-0.6,0.1-1.2,0.2-1.8,0.2c-1.6,0-3.1-0.6-4.1-1.8c-1.2-1.4-1.8-3.1-1.7-4.9c-0.1-1.9,0.5-3.7,1.7-5.1
				c1.1-1.3,2.7-2,4.4-2C421.4,71.9,422.3,72.1,423.1,72.5z M423.9,77.7c0-0.8-0.3-1.6-0.6-2.3c-0.6-1.1-1.8-1.7-3-1.6
				c-1,0-1.9,0.4-2.5,1.1c-0.7,0.8-1.1,1.8-1.1,2.8L423.9,77.7z"/>
		</g>
	</g>
	<g id="轉角三巷藝術空間_">
		<g>
			<path class="st0" d="M8.7,13.2V8.6H1.2V5.4h7.5V0.5h3.6v4.9h7.2v3.2h-7.2v4.5h6.5v20.7h-6.5v4.5h7.6v3.3h-7.6v8H8.7v-8H0.9v-3.3
				h7.8v-4.5H1.9V13.2H8.7z M9,22v-5.9H5V22H9z M9,24.9H5v6h4V24.9z M11.9,22h4v-5.9h-4L11.9,22z M15.9,24.9h-4v6h4V24.9z M32.9,3.2
				v-3h3.6v3h11.7v3.2H36.5v3h10.3V25H45c1.6,2.1,3.2,4.3,4.5,6.6l-2.5,1.7c-0.5-0.9-1-1.8-1.6-2.6c-0.9,0.1-1.7,0.2-2.5,0.2v4.3
				h6.3v3.3H43v7.3c0,2.7-1.3,4-3.8,4h-5.3l-0.8-3.5c1.7,0.1,3.3,0.2,4.8,0.2c1,0,1.5-0.6,1.5-1.7v-6.4H21.5v-3.3h17.9v-4
				c-4.9,0.3-10.7,0.5-17.5,0.8l-0.4-3l11.5-0.3V25H22.6V9.4h10.3v-3H21.4V3.2L32.9,3.2z M32.2,43.8l-1.9,2.9
				c-2.2-2-4.6-3.8-7.2-5.1l1.7-2.6C27.5,40.3,30,41.9,32.2,43.8L32.2,43.8z M33.1,15.8V12h-7.2v3.8L33.1,15.8z M33.1,18.5h-7.2v3.9
				h7.2L33.1,18.5z M36.3,15.8h7.1V12h-7.1L36.3,15.8z M43.4,18.5h-7.1v3.9h7.1L43.4,18.5z M41.6,25h-5.2v3.5
				c2.7-0.1,5.2-0.3,7.4-0.4C43.1,27,42.4,25.9,41.6,25z"/>
			<path class="st0" d="M63.9,50.1l-3-2.7c3.9-4.9,5.8-11.1,5.9-18.6V16c-1.5,1.1-2.9,2.1-4.4,3l-2.5-3c6.8-4,12.6-9.4,16.9-16
				l3.9,0.9c-0.9,1.4-1.8,2.7-2.6,3.9h20.1v2.9c-2.3,2.2-4.7,4.3-7.3,6.2h13.9v31c0,3.2-1.8,4.8-5.3,4.8h-6.9l-1-3.6
				c2.4,0.1,4.7,0.2,6.8,0.2c1.7,0,2.7-0.9,2.7-2.8v-5.9H87.2v11.4h-3.8V37.5H69.8C68.8,42.1,66.8,46.4,63.9,50.1z M85.3,13.8
				c2.7-1.7,5.2-3.6,7.6-5.6H75.3c-1.8,2-3.7,3.9-5.7,5.6H85.3z M70.7,28.6c0,1.9-0.2,3.8-0.4,5.5h13.1v-6.4H70.7V28.6z M70.7,17.3
				v6.9h12.7v-6.9L70.7,17.3z M101.1,17.3H87.2v6.9h13.8L101.1,17.3z M101.1,27.6H87.2v6.4h13.8L101.1,27.6z"/>
			<path class="st0" d="M168.1,43.2V47h-48.7v-3.8H168.1z M164.3,4.5v3.8h-40.8V4.5H164.3z M160.6,23.2V27h-33.5v-3.8H160.6z"/>
			<path class="st0" d="M193.1,6.5V0.6h3.7v5.9h12.6V0.6h3.7v5.9h10.5V10h-10.5v6.7h13.2v3.5h-12.9c3,5,7.9,9,14.5,11.8l-1.7,3.6
				c-4.2-2-8-4.7-11.3-7.9v10.7h-21.5v4.9c0,1.4,0.8,2.2,2.3,2.2h19c1.3,0.1,2.5-0.5,3.3-1.5c0.5-0.8,0.9-2.8,1.2-5.9l3.5,1.1
				c-0.2,2.3-0.6,4.6-1.4,6.8c-0.9,2-2.8,3.1-5.6,3.2h-21.4c-3.1,0-4.6-1.5-4.6-4.4V29.3c-2.9,2.6-6.1,4.9-9.6,6.7l-2-3.3
				c7.2-3.7,12-7.8,14.5-12.5H180v-3.5h13.2V10h-10.6V6.5H193.1z M213.1,25.5c-1.4-1.6-2.6-3.4-3.6-5.3h-13c-0.9,1.9-2,3.7-3.2,5.3
				H213.1z M211.3,34.8V29h-17.8v5.8L211.3,34.8z M209.5,16.7V10h-12.6v6.7L209.5,16.7z"/>
			<path class="st0" d="M286.5,39.1v2.8h-12.3c3.4,1.7,6.7,3.6,9.8,5.8l-2.3,2.3c-1.3-1-2.6-2-3.9-2.9c-8.4,0.9-19.4,1.6-33,2.1
				l-0.6-2.9c0.5,0,1.1-0.1,1.6-0.4c2.2-1.2,4.4-2.6,6.4-4.1h-13.5v-2.8H286.5z M249.7,11.1V9h3.5v2.1h8v2.7h-8v2.4h9.9v2.6h-5.9
				c2.1,1.1,4.1,2.4,6,3.8l-1.7,1.8c-2.1-1.8-4.5-3.3-6.9-4.6l1-1h-9.5l1.3,1.1c-2.1,2.2-4.6,4-7.2,5.5l-1.6-2
				c2.4-1.2,4.6-2.7,6.5-4.5h-5.4v-2.6h10v-2.4h-8.1v-2.7L249.7,11.1z M251.6,3.2V0.3h3.7v2.9h14.7V0.3h3.7v2.8h12.1v3.1h-12.1v2.1
				h-3.7V6.3h-14.7v2.1h-3.7V6.3h-12.1V3.1L251.6,3.2z M249.8,23.6v-2.9h3.2v2.9h6.4v2.3h-6.4v3l8.4-0.3V31
				c-6.3,0.3-13.4,0.5-21.4,0.8l-0.4-2.6c3.6-0.1,6.9-0.1,10.1-0.2v-3.1h-6.5v-2.3L249.8,23.6z M281.3,34v2.5h-37.5V34H281.3z
				 M249.6,46.5c9.7-0.4,17.9-0.8,24.6-1.4c-1.3-0.8-2.6-1.5-3.9-2.2l1-0.9h-14.9C254.3,43.6,252,45.1,249.6,46.5L249.6,46.5z
				 M280.4,31.3c-0.9-0.8-1.5-1.9-1.7-3.1c-0.4-1.9-0.6-3.9-0.5-5.9c0-2,0.1-4.3,0.2-6.8h-4.9v0.1c0,2.8-0.5,5.5-1.4,8.1
				c1.6,1.1,3.1,2.4,4.6,3.7l-2.3,2.2c-1.1-1.1-2.3-2.2-3.6-3.1c-1.3,2.4-3.2,4.5-5.5,6l-2.5-2.2c2.2-1.4,4.1-3.4,5.3-5.7
				c-1.5-1-3.1-1.9-4.8-2.8l1.8-2c1.4,0.6,2.8,1.3,4.1,2.1c0.6-2,0.9-4.1,0.9-6.2v-0.1h-5.9v-3.1h5.9V9.3h3.2v3.1h8.2
				c-0.3,3.6-0.5,6.9-0.5,10c0,1.5,0.1,3,0.3,4.5c0.3,1.1,0.6,1.7,1.1,1.8c0.6-0.1,1-0.6,1.4-1.6c0.3-1.4,0.6-2.7,0.7-4.1l2.7,1.2
				c-0.5,3.4-1.1,5.6-2,6.8c-0.6,0.8-1.5,1.3-2.5,1.4C282,32.3,281.1,31.9,280.4,31.3L280.4,31.3z"/>
			<path class="st0" d="M311.6,2c-3.1,6.2-7.7,11.6-13.3,15.6l-1.1-3.7c4.7-3.5,8.5-8.1,11.1-13.4L311.6,2z M312.1,15.6
				c-1.1,2.3-2.4,4.6-3.9,6.7v27.5h-3.8V26.8c-1.9,1.9-3.9,3.8-6,5.4l-1.1-3.7c4.9-3.9,8.9-8.9,11.5-14.6L312.1,15.6z M313.2,16.3
				v-3.5h6.9V0.6h3.6v12.1h6.9v3.5h-6.9v5.2c2.7,3.4,5.4,7.3,8.2,11.6l-2.2,3.2c-2.3-4.4-4.3-8-6-10.7v24.1h-3.6V25.6
				c-1.7,6.1-4.3,12-7.7,17.4l-2.2-3.5c4.3-6,7.4-13.8,9.2-23.3L313.2,16.3z M331.1,9.6l-2.7,1.2c-0.8-2.4-1.7-4.8-2.8-7.1l2.8-0.9
				C329.5,5,330.4,7.3,331.1,9.6z M332.1,49.4l-0.8-3.6c1.7,0.2,3.3,0.3,4.9,0.3c0.9,0.1,1.8-0.5,1.9-1.4c0-0.1,0-0.3,0-0.5V21.5
				h-6.4v-3.7h15v3.7h-4.8v23.6c0,2.9-1.5,4.3-4.4,4.3H332.1z M345.8,4v3.6h-13.3V4H345.8z"/>
			<path class="st0" d="M399.9,27.9v3.7h-16.6v12.8h21.1v3.7h-46.1v-3.7h21V31.6h-16.5v-3.7H399.9z M383.7,5.7h20.7v10.9h-3.9V9.3
				h-38v7.2h-3.9V5.7h21.2c-0.6-1.7-1.4-3.4-2.3-5l4.2-0.6C382.3,1.7,383,3.6,383.7,5.7z M377.6,15.9c-4.6,4.1-10,7.3-15.7,9.5
				l-1.7-3.6c5.5-1.9,10.6-4.9,15-8.8L377.6,15.9z M401.9,22.3l-2.2,3.3c-4.7-3.9-9.8-7.2-15.3-9.7l2-3.1
				C391.9,15.3,397.2,18.5,401.9,22.3z"/>
			<path class="st0" d="M438.1,20.3h-15.2v29.5H419V2.2h19.1V20.3z M434.1,5.6h-11.3v4.1h11.3V5.6z M422.9,16.8h11.3v-4.1h-11.3
				V16.8z M450.7,24.2V45h-19.8V24.2H450.7z M447,33v-5.6h-12.4V33H447z M447,36.2h-12.4v5.6H447V36.2z M443.2,20.3V2.1h19.4v43.5
				c0,2.7-1.4,4.1-4.1,4.1c-1.8,0-3.7,0-5.5-0.1l-1-3.7c1.8,0.1,3.5,0.2,5.1,0.2c0.8,0.1,1.6-0.5,1.7-1.3c0-0.1,0-0.3,0-0.4v-24
				L443.2,20.3z M458.8,5.6h-11.7v4.1h11.7L458.8,5.6z M447.1,16.8h11.7v-4h-11.7V16.8z"/>
		</g>
	</g>
</g>
</svg>
