<svg id="Web" xmlns="http://www.w3.org/2000/svg" width="30" height="30" viewBox="0 0 30 30">
  <path id="路径_4" data-name="路径 4" d="M4.5,4.5A13.617,13.617,0,0,1,15,0,13.617,13.617,0,0,1,25.5,4.5,13.617,13.617,0,0,1,30,15a13.617,13.617,0,0,1-4.5,10.5A13.617,13.617,0,0,1,15,30,13.617,13.617,0,0,1,4.5,25.5C1.75,22.5,0,19.25,0,15A13.617,13.617,0,0,1,4.5,4.5ZM17,27q1.5,0,3.75-2.25A10.919,10.919,0,0,0,22.5,19.5a4.14,4.14,0,0,0-1.25-3A4.4,4.4,0,0,0,18,15H15.5a7.3,7.3,0,0,1-2.25-.5,2.27,2.27,0,0,1-.75-1.75,1.3,1.3,0,0,1,.5-1,1.9,1.9,0,0,1,1-.5,1.706,1.706,0,0,1,1.25.75c.5.25.75.5,1,.5a1.5,1.5,0,0,0,1-.25,1.5,1.5,0,0,0,.25-1,3.978,3.978,0,0,0-1.25-2.5A10.34,10.34,0,0,0,17.5,4a.538.538,0,0,0-.5-.5A7.728,7.728,0,0,0,15,3,12.506,12.506,0,0,0,8.5,5a6.294,6.294,0,0,0-2.25,5,6.4,6.4,0,0,0,2,4.75,6.83,6.83,0,0,0,4.75,2h0v1a3.21,3.21,0,0,0,1,2.5,3.641,3.641,0,0,0,2.25,1.5v4.5c0,.25,0,.25.25.5S16.75,27,17,27Z" fill="#afafaf"/>
</svg>
